<svg width="800" height="600" xmlns="http://www.w3.org/2000/svg" viewBox="0 0 800 600">
  <rect width="100%" height="100%" fill="hsl(var(--card))" />
  <g stroke="hsl(var(--border))" stroke-width="2">
    <line x1="100" y1="0" x2="100" y2="600" />
    <line x1="250" y1="0" x2="250" y2="600" />
    <line x1="450" y1="0" x2="450" y2="600" />
    <line x1="650" y1="0" x2="650" y2="600" />
    <line x1="0" y1="120" x2="800" y2="120" />
    <line x1="0" y1="280" x2="800" y2="280" />
    <line x1="0" y1="450" x2="800" y2="450" />
  </g>
  <g stroke="hsl(var(--muted))" stroke-width="1">
    <line x1="175" y1="0" x2="175" y2="280" />
    <line x1="350" y1="120" x2="350" y2="450" />
    <line x1="550" y1="0" x2="550" y2="120" />
    <line x1="550" y1="280" x2="550" y2="600" />
    <line x1="725" y1="120" x2="725" y2="450" />
    <line x1="100" y1="200" x2="450" y2="200" />
    <line x1="450" y1="520" x2="800" y2="520" />
    <line x1="0" y1="50" x2="100" y2="50" />
    <line x1="250" y1="380" x2="650" y2="380" />
  </g>
</svg>
